PathFileType	4	(X/Y/Z)	27_2_22_p1_0-880_filt_butterworth.trc
DataRate	CameraRate	NumFrames	NumMarkers	Units	OrigDataRate	OrigDataStartFrame	OrigNumFrames
60.0	60.0	6	27	m	60.0	440	880
Frame#	Time	RHip			RKnee			RAnkle			RBigToe			RSmallToe			RHeel			LHip			LKnee			LAnkle			LBigToe			LSmallToe			LHeel			Neck			Head			Nose			RShoulder			RElbow			RWrist			RThumb			RIndex			RPinky			LShoulder			LElbow			LWrist			LThumb			LIndex			LPinky			
		X1	Y1	Z1	X2	Y2	Z2	X3	Y3	Z3	X4	Y4	Z4	X5	Y5	Z5	X6	Y6	Z6	X7	Y7	Z7	X8	Y8	Z8	X9	Y9	Z9	X10	Y10	Z10	X11	Y11	Z11	X12	Y12	Z12	X13	Y13	Z13	X14	Y14	Z14	X15	Y15	Z15	X16	Y16	Z16	X17	Y17	Z17	X18	Y18	Z18	X19	Y19	Z19	X20	Y20	Z20	X21	Y21	Z21	X22	Y22	Z22	X23	Y23	Z23	X24	Y24	Z24	X25	Y25	Z25	X26	Y26	Z26	X27	Y27	Z27	
440	7.333333333333333	0.11306984375969441	0.612794173749488	1.024804501698701	0.11950390438583362	0.6578383697821659	1.4297443785339974	0.14999993872266937	0.8074441990912691	1.8396933045189519	0.1205079471410483	0.5959483309258605	1.8425285880021778	0.17392870369115987	0.6160973938553251	1.8364480122563798	0.15295011904323913	0.8962702476379119	1.9093821983516976	-0.0634926207354623	0.6248897907023931	1.0315141092529097	-0.04918835712660332	0.7249179361686402	1.4468171135565142	-0.02895461049130203	0.8140566391762136	1.8497777328626221	-0.03719648798951743	0.5920511021996804	1.8213153538656357	-0.08228347188594222	0.6527138356850949	1.8411043711925645	-0.0025806956215668865	0.8520634931471558	1.8919883777286208	0.0310774894105176	0.5901776400173534	0.4987113791719491	0.03247594182984846	0.5230817447420576	0.25331573923915984	0.0364180110878768	0.45949712448749636	0.39441522997688083	0.15908249865847923	0.5681278017650679	0.5643941029520513	0.16299994149233984	0.5505620101059681	0.7789836080639408	0.19974319477022015	0.4321589384600174	0.7011634318508028	0.1917575765635844	0.27662899055571	0.6126610798848504	0.21534909606504354	0.3063871131515129	0.6193144582455928	0.2129797873399218	0.2744270468201721	0.6713074053151631	-0.11075766155803765	0.6284989452157621	0.5816307152961436	-0.17641412025846018	0.6817908022329934	0.7940045861733618	-0.1038834872441088	0.5097258779736765	0.7770207540814709	-0.03981331125682804	0.413736596606382	0.7177576047458477	-0.04087617092784094	0.3894450977851658	0.7234947101373482	-0.05857701341431277	0.43171320771066884	0.77510505287908
441	7.35	0.11457902252266294	0.6175983957527919	1.0255770074193817	0.11951317032438985	0.6578250219340217	1.429705325110131	0.15006187078769878	0.8070584202784101	1.8409699762664318	0.1208312097599593	0.5943975734800188	1.8416755535921125	0.17388624128437308	0.6162865548064697	1.8365379711755383	0.15290706422427572	0.8962637983445015	1.9094380456358981	-0.06348438889367165	0.6249206578140234	1.031480036786454	-0.04917230914878516	0.7248151707600616	1.4467585774965301	-0.030008580664140177	0.8138325648620306	1.8495231630913904	-0.0371929606295765	0.5921669844070153	1.8213860156087212	-0.08229419080912462	0.6528293901051728	1.841180708587094	-0.002504279963869538	0.852025304516921	1.891202236814366	0.0310139589226742	0.5902617731821815	0.4988087009799359	0.034075077048865574	0.5236174104767978	0.25317833635458753	0.03639725638006614	0.45987446918238906	0.39446946656863974	0.1591016812384527	0.5680754352877561	0.5645160515242332	0.16016124701550633	0.5500877543707994	0.7769053931560793	0.19241199822229338	0.4294734676337243	0.6923761967879385	0.18620763788131298	0.27793949347679103	0.6025598171953767	0.21126403835550836	0.303124328218776	0.6107018517788906	0.21048229009263492	0.2742539630380241	0.6592130422626064	-0.11018911094271241	0.6275363472498708	0.5823465672370983	-0.1770636947059167	0.6798969669670106	0.7946211638958575	-0.10329925106577599	0.5050303858495648	0.7762907243267081	-0.039509811756458735	0.4103410521346111	0.7177513803202928	-0.040783661723505074	0.3887671154028814	0.7264889463059223	-0.060870400433408606	0.43570615632389553	0.7753631720299505
442	7.366666666666666	0.1168311246106006	0.6213478478822707	1.0265641944171833	0.11953009780434519	0.6578091204298979	1.429687071639467	0.15012539532517968	0.8066781269264032	1.8432709990542284	0.12156950732952698	0.5900615013296553	1.8392939574797875	0.17388282972469277	0.6167296565978548	1.8367350553401673	0.15290841292862914	0.8963085939714657	1.909414738665979	-0.06346352864761401	0.6250161568131065	1.0315119901455179	-0.04899161891121203	0.7246687726942642	1.4457762641774201	-0.030394040833552995	0.8138544436146449	1.8494322337009135	-0.037183860712595704	0.5922149514256263	1.8213984016745306	-0.08228711232565021	0.6528696645805088	1.8411635302609894	-0.0025076264237333984	0.851960337844685	1.8909747575572	0.030884215510674703	0.5902226269766451	0.49889117923094556	0.035225274742622666	0.5239599524996424	0.2527831210485269	0.03628957300151043	0.45975714470866524	0.3944899815279539	0.15914270416563847	0.5680711505344646	0.5646158898933977	0.15816223866051587	0.5484736116794203	0.7744615367902254	0.18223714871848007	0.42138158638304896	0.6827068537858282	0.17559672143466612	0.28706536567118945	0.5898941839852528	0.20332951962970988	0.298377903350617	0.596332364643604	0.2030249042725616	0.27319161378291784	0.6443493539685677	-0.10937417804222478	0.6278610785514573	0.5827102045062861	-0.1779674817956145	0.6770889719433866	0.79635716928696	-0.10195103373287698	0.500912622856234	0.7756212495317356	-0.03828748672935111	0.407128370545786	0.7169737883250996	-0.04067743847543347	0.3887829967370845	0.7286568621528537	-0.06244979852767563	0.44760245850717284	0.7763637381394616
443	7.383333333333334	0.1191957280077107	0.6229593404263442	1.0273272514456693	0.11956289836992626	0.6577903702745822	1.429674878368262	0.1501443587169792	0.8065449519882874	1.8457651682280236	0.12247595399896807	0.5846306325488535	1.8363237497754803	0.17403252738280364	0.6167881661689466	1.8367170810548394	0.15296119337223804	0.8964236883617605	1.9093428544856634	-0.06340597083281825	0.6250724470924366	1.0318857211577794	-0.04879911773881389	0.7245503604191552	1.4447814587401029	-0.030378049032354845	0.8139544286818315	1.8494379862157782	-0.03716675378720815	0.5921650975588277	1.8213294488030756	-0.08225125687140017	0.652751540402322	1.8410555148714842	-0.002563710921925985	0.8519039158241705	1.8910152183834312	0.030771836100675812	0.5899283296328726	0.49920540796050084	0.035559835048746435	0.5239186975538621	0.2519661460336025	0.03619522978379061	0.45719702659054307	0.394414930588763	0.15919975100066303	0.5681915071043774	0.5647075948043399	0.15780137495537028	0.5457524459634714	0.7721465440336968	0.17022651444982093	0.40677666482829766	0.6732438411768142	0.162384214488155	0.30613393220852864	0.5773358429707477	0.19170341048410378	0.29330091610464404	0.5791425922945989	0.1915629317044687	0.270911009659666	0.6289175057980891	-0.10806521167661631	0.6283845402016416	0.5826184687092982	-0.17871971035454806	0.674784999973216	0.7990357658139156	-0.1000906399716512	0.4989918298199224	0.7751269359617571	-0.03626531256689951	0.4052343287209737	0.7161646048205189	-0.040360173312905555	0.3903917926608901	0.7295949582448497	-0.06353513231211988	0.46302596315169164	0.7783107923198929
444	7.4	0.12108552919554329	0.6230826023550929	1.027681136619575	0.1196026974736689	0.6577733640619469	1.4296521374595847	0.15013060018302873	0.8065848941580822	1.8469952888316759	0.12314773293461952	0.5806459536516113	1.8341531174121082	0.17448265440103775	0.6152201565758373	1.8358488273159368	0.15301150080430986	0.8964982656202191	1.9092516055370836	-0.06331028987394342	0.624983834712389	1.0328126560650805	-0.04869824136555101	0.7244723397219758	1.4443402613769367	-0.03027257035084987	0.8140271618278982	1.8494524278601343	-0.037146824145378204	0.5920315230122012	1.8212161973845167	-0.0822027475832715	0.6525141931412217	1.8409189560720571	-0.002611970658745636	0.8517999598604961	1.8910186764854835	0.03090428014058744	0.5887677550539788	0.4996718211410189	0.03537223380905151	0.5236137441780845	0.2509287011297783	0.036540543126309895	0.4508282219136572	0.39418319591627965	0.15923118606138112	0.5683725027091502	0.5647302725086925	0.1590939547524486	0.5410948728291934	0.7701142465459999	0.1585956306828461	0.3900195885688924	0.6630707297675462	0.15019357356808227	0.33007012866725444	0.5650092571446257	0.1772814795784142	0.2914538851529193	0.5628933770343066	0.1787287300119807	0.2703022818208409	0.6137046496651617	-0.10675826173091224	0.6286196230480399	0.5818962041810533	-0.1790984643101759	0.6739297953270716	0.8015309292557351	-0.09737815974765186	0.5011342032554404	0.7748326674023965	-0.034172925690993144	0.40530040186215643	0.7171342783590058	-0.03935410579687746	0.39403306790333625	0.7294734612766883	-0.06320737900060193	0.4770425180882231	0.7810146612839619
445	7.416666666666667	0.12217571736793918	0.6227681770551892	1.0277762011829044	0.11962840350323642	0.6577702705445144	1.4296321302630042	0.15013190848550004	0.8065411296157607	1.846356241716419	0.1234051916728988	0.5791110917366437	1.8333371622383265	0.1751723838354966	0.6111669255643407	1.8336931831859957	0.15298979035944316	0.8963962829494162	1.9091635591756748	-0.06321377396735318	0.6247801557452191	1.0340598683921538	-0.04867664652634064	0.7244293832086068	1.4443133805466468	-0.03020464649678904	0.8140313135109063	1.8494432358730646	-0.03712855100073028	0.5918721742920491	1.8211191887120026	-0.0821622112895962	0.6522493577085263	1.8408064215276683	-0.00263211881573638	0.8515756482270145	1.8908780197209576	0.031506633279275095	0.5860375074371845	0.5000034733064971	0.035159473304073034	0.5235117774439847	0.2501274819580863	0.03790231434045261	0.4427079513997567	0.39384091992892556	0.15917483566350837	0.5684973768873487	0.5646254392803728	0.16143404550542373	0.5351220917618101	0.7685872861549222	0.14977866256599115	0.37785302861277414	0.6516499180921268	0.1402158827591243	0.3517727568877312	0.5514545097439891	0.1616396480616658	0.29797081943950476	0.5487924654008413	0.16438696859211352	0.276465346941154	0.5979622891327258	-0.10669000030676024	0.628432236868434	0.5806692523606688	-0.17906291967829474	0.6750151246132214	0.8032267828963701	-0.09374970023129468	0.5092237694190874	0.7749897448408707	-0.03275849889753755	0.40631733200149167	0.7213688553620812	-0.03743810481729841	0.3992404036692692	0.7291084933333681	-0.06030873744767437	0.48662408468341756	0.78330131564684
